HIERARCHY
ROOT Hips
{
  OFFSET 0.619022 32.6945 21.6164
  CHANNELS 6 Xposition Yposition Zposition Zrotation Xrotation Yrotation
  JOINT LeftHip
  {
    OFFSET 3.43 0 0
    CHANNELS 6 Xposition Yposition Zposition Zrotation Xrotation Yrotation
    JOINT LeftKnee
    {
      OFFSET 0 -18.47 0
      CHANNELS 6 Xposition Yposition Zposition Zrotation Xrotation Yrotation
      JOINT LeftAnkle
      {
        OFFSET 0 -17.95 0
        CHANNELS 6 Xposition Yposition Zposition Zrotation Xrotation Yrotation
        End Site
        {
          OFFSET 0 -3.12 0
        }
      }
    }
  }
  JOINT RightHip
  {
    OFFSET -3.43 0 0
    CHANNELS 6 Xposition Yposition Zposition Zrotation Xrotation Yrotation
    JOINT RightKnee
    {
      OFFSET 0 -18.47 0
      CHANNELS 6 Xposition Yposition Zposition Zrotation Xrotation Yrotation
      JOINT RightAnkle
      {
        OFFSET 0 -17.95 0
        CHANNELS 6 Xposition Yposition Zposition Zrotation Xrotation Yrotation
        End Site
        {
          OFFSET 0 -3.12 0
        }
      }
    }
  }
  JOINT Chest
  {
    OFFSET 0 4.57 0
    CHANNELS 6 Xposition Yposition Zposition Zrotation Xrotation Yrotation
    JOINT CS_BVH
    {
      OFFSET 0 6.57 0
      CHANNELS 6 Xposition Yposition Zposition Zrotation Xrotation Yrotation
      JOINT LeftCollar
      {
        OFFSET 1.06 4.19 1.76
        CHANNELS 6 Xposition Yposition Zposition Zrotation Xrotation Yrotation
        JOINT LeftShoulder
        {
          OFFSET 5.81 0 0
          CHANNELS 6 Xposition Yposition Zposition Zrotation Xrotation Yrotation
          JOINT LeftElbow
          {
            OFFSET 0 -12.08 0
            CHANNELS 6 Xposition Yposition Zposition Zrotation Xrotation Yrotation
            JOINT LeftWrist
            {
              OFFSET 0 -9.82 0
              CHANNELS 6 Xposition Yposition Zposition Zrotation Xrotation Yrotation
              End Site
              {
                OFFSET 0 -7.37 0
              }
            }
          }
        }
      }
      JOINT RightCollar
      {
        OFFSET -1.06 4.19 1.76
        CHANNELS 6 Xposition Yposition Zposition Zrotation Xrotation Yrotation
        JOINT RightShoulder
        {
          OFFSET -6.06 0 0
          CHANNELS 6 Xposition Yposition Zposition Zrotation Xrotation Yrotation
          JOINT RightElbow
          {
            OFFSET 0 -11.08 0
            CHANNELS 6 Xposition Yposition Zposition Zrotation Xrotation Yrotation
            JOINT RightWrist
            {
              OFFSET 0 -9.82 0
              CHANNELS 6 Xposition Yposition Zposition Zrotation Xrotation Yrotation
              End Site
              {
                OFFSET 0 -7.14001 0
              }
            }
          }
        }
      }
      JOINT Neck
      {
        OFFSET 0 4.05 0
        CHANNELS 6 Xposition Yposition Zposition Zrotation Xrotation Yrotation
        JOINT Head
        {
          OFFSET 0 5.19 0
          CHANNELS 6 Xposition Yposition Zposition Zrotation Xrotation Yrotation
          End Site
          {
            OFFSET 0 4.14001 0
          }
        }
      }
    }
  }
}
MOTION
Frames:	4
Frame Time:	0.0333333
15.8728 39.8665 -4.23393 1.65196 0.0464824 -0.366274 3.43 7.10543e-015 0 0.82104 -3.91073 3.29492 -3.55271e-015 -18.47 -1.86517e-014 -0.860103 11.3508 0.209175 1.49214e-013 -17.95 -2.07834e-013 -0.413767 -6.92183 -0.516596 -3.43 0 -8.88178e-016 -6.11576 -6.02954 -2.77971 3.55271e-014 -18.47 -2.84217e-014 0.472893 15.3609 2.36119 1.52767e-013 -17.95 -3.92575e-013 0.680109 -7.87699 0.27505 1.42109e-014 4.57 -4.44089e-015 -2.06375 -0.668428 0.546193 -1.42109e-014 6.57 0 -0.899882 -1.36668 1.04404 1.06 4.19 1.76 13.0956 -7.1286 -15.9226 5.81 -1.42109e-014 -8.88178e-016 79.0668 17.5136 -2.91175 -5.68434e-013 -12.08 5.48006e-013 -5.10779 0.00746167 -8.81556 -1.34506e-011 -9.82 6.88871e-012 2.65185 7.6283 0.360622 -1.06 4.19 1.76 -9.33324 -7.4397 14.9894 -6.06 7.10543e-015 1.06581e-014 -84.0016 12.184 0.742667 -4.26326e-013 -11.08 6.03961e-013 8.1835 -4.33987 15.173 -5.27223e-012 -9.82 9.26548e-012 0.657771 7.61862 -0.0331901 -1.06581e-014 4.05 -4.44089e-016 4.78297 -2.38199 -1.29706 -2.84217e-014 5.19 3.55271e-015 -2.91167 -23.8646 0.844697 
15.8613 39.8669 -4.23056 1.61773 0.011093 -0.406411 3.43 7.10543e-015 0 0.900257 -3.831 3.37535 -3.55271e-015 -18.47 -1.86517e-014 -0.924711 11.2745 0.199782 1.49214e-013 -17.95 -2.07834e-013 -0.36591 -6.95246 -0.516629 -3.43 0 -8.88178e-016 -6.08562 -5.97893 -2.78442 3.55271e-014 -18.47 -2.84217e-014 0.518679 15.3268 2.38572 1.52767e-013 -17.95 -3.92575e-013 0.587841 -8.00201 0.275133 1.42109e-014 4.57 -4.44089e-015 -2.05925 -0.664341 0.574013 -1.42109e-014 6.57 0 -0.888974 -1.3548 1.0994 1.06 4.19 1.76 13.0956 -7.1286 -15.9226 5.81 -1.42109e-014 -8.88178e-016 79.073 17.5899 -2.75106 -5.68434e-013 -12.08 5.48006e-013 -5.04583 0.00745686 -9.05045 -1.34506e-011 -9.82 6.88871e-012 2.69693 7.48135 0.357905 -1.06 4.19 1.76 -9.33324 -7.4397 14.9894 -6.06 7.10543e-015 1.06581e-014 -83.9148 12.2454 0.714924 -4.26326e-013 -11.08 6.03961e-013 8.18268 -4.35312 15.2513 -5.27223e-012 -9.82 9.26548e-012 0.639077 7.70054 -0.0253711 -1.06581e-014 4.05 -4.44089e-016 4.81957 -2.35306 -1.28491 -2.84217e-014 5.19 3.55271e-015 -3.01352 -23.8615 0.912106 
15.8586 39.8673 -4.25407 1.56337 -0.148594 -0.289928 3.43 7.10543e-015 0 0.974913 -3.77235 3.39532 -3.55271e-015 -18.47 -1.86517e-014 -0.950941 11.3805 0.0727919 1.49214e-013 -17.95 -2.07834e-013 -0.302609 -6.95486 -0.516632 -3.43 0 -8.88178e-016 -6.02165 -5.81126 -2.78601 3.55271e-014 -18.47 -2.84217e-014 0.52751 15.2966 2.23939 1.52767e-013 -17.95 -3.92575e-013 0.595154 -8.04759 0.275164 1.42109e-014 4.57 -4.44089e-015 -2.01075 -0.628344 0.541545 -1.42109e-014 6.57 0 -0.795674 -1.28145 1.03006 1.06 4.19 1.76 13.0956 -7.1286 -15.9226 5.81 -1.42109e-014 -8.88178e-016 78.9168 17.4894 -2.87667 -5.68434e-013 -12.08 5.48006e-013 -5.05138 0.00746527 -8.63537 -1.34506e-011 -9.82 6.88871e-012 2.7536 7.69728 0.356578 -1.06 4.19 1.76 -9.33324 -7.4397 14.9894 -6.06 7.10543e-015 1.06581e-014 -83.898 12.1026 0.631191 -4.26326e-013 -11.08 6.03961e-013 8.02312 -4.31313 14.8393 -5.27223e-012 -9.82 9.26548e-012 0.173341 7.61799 0.0732079 -1.06581e-014 4.05 -4.44089e-016 4.46998 -2.02028 -1.18288 -2.84217e-014 5.19 3.55271e-015 -2.79433 -24.1327 0.844142 
15.8534 39.8679 -4.25027 1.53379 -0.237053 -0.283627 3.43 7.10543e-015 0 1.011 -3.70836 3.39683 -3.55271e-015 -18.47 -1.86517e-014 -0.949121 11.437 0.0145948 1.49214e-013 -17.95 -2.07834e-013 -0.25748 -6.99629 -0.516678 -3.43 0 -8.88178e-016 -5.99578 -5.65825 -2.80055 3.55271e-014 -18.47 -2.84217e-014 0.540686 15.1764 2.26622 1.52767e-013 -17.95 -3.92575e-013 0.584329 -8.03284 0.275154 1.42109e-014 4.57 -4.44089e-015 -2.00081 -0.578905 0.564384 -1.42109e-014 6.57 0 -0.777669 -1.18306 1.0759 1.06 4.19 1.76 13.0956 -7.1286 -15.9226 5.81 -1.42109e-014 -8.88178e-016 78.8517 17.5535 -2.57389 -5.68434e-013 -12.08 5.48006e-013 -4.80427 -0.035043 -7.88989 -1.34506e-011 -9.82 6.88871e-012 2.60086 7.87385 0.383531 -1.06 4.19 1.76 -9.33324 -7.4397 14.9894 -6.06 7.10543e-015 1.06581e-014 -83.8867 12.1809 0.613669 -4.26326e-013 -11.08 6.03961e-013 7.94251 -4.30002 14.6355 -5.27223e-012 -9.82 9.26548e-012 0.587935 7.77828 -0.0131714 -1.06581e-014 4.05 -4.44089e-016 4.69855 -2.04606 -1.263 -2.84217e-014 5.19 3.55271e-015 -2.85208 -24.1927 0.856354 
